<?xml version="1.0" encoding="UTF-8"?>
<svg version="1.1" xmlns="http://www.w3.org/2000/svg" width="6000" height="3000">
<path d="M0 0 C1980 0 3960 0 6000 0 C6000 990 6000 1980 6000 3000 C4020 3000 2040 3000 0 3000 C0 2010 0 1020 0 0 Z " fill="#E2E8EE" transform="translate(0,0)"/>
<path d="M0 0 C1016.07 0 2032.14 0 3079 0 C3079 0.33 3079 0.66 3079 1 C2925.88 1 2772.76 1 2615 1 C2615 1.66 2615 2.32 2615 3 C2638.76 3 2662.52 3 2687 3 C2687 3.33 2687 3.66 2687 4 C2631.56 4 2576.12 4 2519 4 C2519 3.34 2519 2.68 2519 2 C2505.8 2 2492.6 2 2479 2 C2479 2.66 2479 3.32 2479 4 C2405.08 4 2331.16 4 2255 4 C2255 3.67 2255 3.34 2255 3 C2239.16 2.67 2223.32 2.34 2207 2 C2207 2.66 2207 3.32 2207 4 C2156.84 4 2106.68 4 2055 4 C2055 3.67 2055 3.34 2055 3 C2035.85522208 2.97638867 2016.7104472 2.9588849 1997.56565762 2.94818783 C1988.67161503 2.9430837 1979.77758161 2.93615688 1970.88354492 2.92456055 C1963.10985003 2.91442999 1955.33616179 2.90810414 1947.56246048 2.90591151 C1943.46604941 2.90463471 1939.36965732 2.90175099 1935.27325249 2.89426994 C1930.64236649 2.88610818 1926.01150755 2.8834717 1921.38061523 2.88647461 C1920.63863195 2.88689408 1919.89664867 2.88731355 1919.13218105 2.88774574 C1904.77081391 2.9069822 1890.42190753 3.26662949 1876.06870937 3.73712826 C1874.86529528 3.77392148 1874.86529528 3.77392148 1873.63756979 3.81145799 C1872.12939577 3.85770562 1870.62134258 3.90813837 1869.11346972 3.96333945 C1867.40969492 4.01419827 1865.70448583 4.01277644 1864 4 C1863.67 3.67 1863.34 3.34 1863 3 C1861.32529663 2.90031528 1859.64641635 2.86919428 1857.96875 2.8671875 C1856.92976563 2.86589844 1855.89078125 2.86460938 1854.8203125 2.86328125 C1853.17675781 2.86908203 1853.17675781 2.86908203 1851.5 2.875 C1849.90285156 2.86919922 1849.90285156 2.86919922 1848.2734375 2.86328125 C1846.69949219 2.86521484 1846.69949219 2.86521484 1845.09375 2.8671875 C1843.66579102 2.86887939 1843.66579102 2.86887939 1842.20898438 2.87060547 C1838.87769947 2.95810646 1838.87769947 2.95810646 1835.10961914 3.5 C1828.15146682 4.31135992 1821.14688214 4.1437062 1814.15234375 4.1328125 C1812.61169927 4.13348801 1811.07105489 4.13446009 1809.53041077 4.13571167 C1806.30875631 4.13718009 1803.08712971 4.13506379 1799.86547852 4.13037109 C1795.78347743 4.12470811 1791.70154262 4.12793641 1787.61954403 4.13394356 C1784.43719507 4.13760136 1781.25486115 4.1363864 1778.07251167 4.13381577 C1776.57017572 4.13315906 1775.06783831 4.13392971 1773.56550407 4.13629532 C1764.5273742 4.14739637 1755.5772339 3.84557078 1746.56004333 3.22683716 C1742.22287969 2.95048382 1737.91091625 2.85516185 1733.56640625 2.8671875 C1732.76806366 2.86577759 1731.96972107 2.86436768 1731.14718628 2.86291504 C1728.61890869 2.86082532 1726.09076433 2.86698228 1723.5625 2.875 C1722.25878952 2.87732635 1722.25878952 2.87732635 1720.92874146 2.87969971 C1710.09451975 2.90231423 1699.26576984 2.99156621 1688.4375 3.375 C1687.45918213 3.40577637 1686.48086426 3.43655273 1685.47290039 3.46826172 C1684.5730542 3.50709473 1683.67320801 3.54592773 1682.74609375 3.5859375 C1681.98997803 3.6173584 1681.2338623 3.6487793 1680.45483398 3.68115234 C1677.81524635 3.95784403 1677.81524635 3.95784403 1674.63476562 5 C1670.97625472 6.00653282 1667.88227502 6.31335967 1664.09765625 6.4140625 C1663.41477036 6.43347397 1662.73188446 6.45288544 1662.02830505 6.47288513 C1659.70649646 6.53429798 1657.38468748 6.58031779 1655.0625 6.625 C1654.24894043 6.64368134 1653.43538086 6.66236267 1652.59716797 6.68161011 C1621.41066228 7.39009131 1590.19232757 7.08517744 1559 7 C1559 6.67 1559 6.34 1559 6 C1580.12 5.67 1601.24 5.34 1623 5 C1623 4.67 1623 4.34 1623 4 C1593.96 3.67 1564.92 3.34 1535 3 C1535 3.66 1535 4.32 1535 5 C1533.865625 5.144375 1532.73125 5.28875 1531.5625 5.4375 C1528.19222799 5.61171478 1528.19222799 5.61171478 1527 7 C1524.72052208 7.1002093 1522.43792865 7.13081303 1520.15625 7.1328125 C1519.47195923 7.13376923 1518.78766846 7.13472595 1518.0826416 7.13571167 C1516.63338123 7.1363933 1515.18411782 7.13454023 1513.73486328 7.13037109 C1511.50937072 7.12502252 1509.28407999 7.1303166 1507.05859375 7.13671875 C1505.65364539 7.13605797 1504.24869715 7.1347768 1502.84375 7.1328125 C1501.55662109 7.13168457 1500.26949219 7.13055664 1498.94335938 7.12939453 C1496 7 1496 7 1495 6 C1493.28134591 5.9064081 1491.55884256 5.88255389 1489.83764648 5.88647461 C1488.18604774 5.88658791 1488.18604774 5.88658791 1486.50108337 5.88670349 C1485.3031868 5.89186478 1484.10529022 5.89702606 1482.87109375 5.90234375 C1481.65172623 5.9037587 1480.4323587 5.90517365 1479.17604065 5.90663147 C1475.2631693 5.91225033 1471.35035419 5.92480604 1467.4375 5.9375 C1464.79231853 5.94251257 1462.14713617 5.9470759 1459.50195312 5.95117188 C1453.00128274 5.96222589 1446.50064539 5.97898236 1440 6 C1439.67 5.01 1439.34 4.02 1439 3 C1434.65815798 3.18464366 1434.65815798 3.18464366 1431 5 C1427.7901307 5.26998901 1424.58769141 5.44611437 1421.37109375 5.60546875 C1417.89055723 5.4970552 1417.89055723 5.4970552 1415 7 C1412.30345146 7.07319621 1409.63308542 7.09242537 1406.9375 7.0625 C1406.17888672 7.05798828 1405.42027344 7.05347656 1404.63867188 7.04882812 C1402.75908129 7.0370068 1400.87953101 7.01907078 1399 7 C1399 6.34 1399 5.68 1399 5 C1397.31680664 5.23771118 1397.31680664 5.23771118 1395.59960938 5.48022461 C1390.8673196 6.06877884 1386.17067412 6.22339924 1381.40625 6.31640625 C1380.48122681 6.33723267 1379.55620361 6.35805908 1378.60314941 6.3795166 C1375.56884847 6.44559184 1372.53446629 6.5045493 1369.5 6.5625 C1368.46085449 6.58367889 1367.42170898 6.60485779 1366.35107422 6.62667847 C1342.56782037 7.10612832 1318.78689804 7.10357371 1295 7 C1295 6.01 1295 5.02 1295 4 C1292.36 4 1289.72 4 1287 4 C1287 3.67 1287 3.34 1287 3 C1285.91529419 2.98969254 1284.83058838 2.97938507 1283.7130127 2.96876526 C1273.47301437 2.87085879 1263.23307447 2.76810906 1252.99317169 2.66066074 C1247.72919221 2.60557978 1242.46520704 2.55218417 1237.20117188 2.50268555 C1232.11774583 2.45482246 1227.03438369 2.402473 1221.95103455 2.34705925 C1220.01506652 2.32673473 1218.07908104 2.30800594 1216.14308167 2.29092598 C1213.42409994 2.26666131 1210.70523655 2.2366389 1207.98632812 2.20532227 C1206.79517395 2.19668907 1206.79517395 2.19668907 1205.57995605 2.18788147 C1200.64616525 2.12361047 1195.8865068 1.69235055 1191 1 C1191 1.99 1191 2.98 1191 4 C1193.64 4 1196.28 4 1199 4 C1199 4.66 1199 5.32 1199 6 C1183.49 6 1167.98 6 1152 6 C1151.67 5.34 1151.34 4.68 1151 4 C1153.64 3.67 1156.28 3.34 1159 3 C1143.16 2.67 1127.32 2.34 1111 2 C1111 2.66 1111 3.32 1111 4 C1112.175625 3.979375 1113.35125 3.95875 1114.5625 3.9375 C1118.47413467 3.93052739 1122.14497944 4.35749657 1126 5 C1126 5.33 1126 5.66 1126 6 C1120.60653012 6.02464849 1115.21309275 6.04283531 1109.81958008 6.05493164 C1107.98331125 6.05997231 1106.14704646 6.06680477 1104.31079102 6.07543945 C1101.67723599 6.08751672 1099.04373384 6.09323081 1096.41015625 6.09765625 C1095.17109276 6.10539818 1095.17109276 6.10539818 1093.90699768 6.11329651 C1091.93763632 6.11349205 1089.96838386 6.06204152 1088 6 C1087.67 5.67 1087.34 5.34 1087 5 C1084.04470496 4.83970312 1081.11017543 4.74042672 1078.15234375 4.68359375 C1077.2659169 4.66281265 1076.37949005 4.64203156 1075.46620178 4.62062073 C1072.623383 4.555026 1069.78046883 4.49619448 1066.9375 4.4375 C1065.01496394 4.3943242 1063.09243766 4.35071022 1061.16992188 4.30664062 C1056.44671332 4.19933457 1051.72340847 4.09809549 1047 4 C1047 3.67 1047 3.34 1047 3 C1052.28 3 1057.56 3 1063 3 C1063 2.34 1063 1.68 1063 1 C1042.30345091 1.08379234 1021.60698143 1.17888559 1000.91054726 1.28752708 C991.30138372 1.33770325 981.69222894 1.38414548 972.08300781 1.421875 C963.71009728 1.45475967 955.33725365 1.49457116 946.96441686 1.54279006 C942.52881799 1.56809024 938.09326369 1.589861 933.65761185 1.60334396 C929.48634405 1.61613255 925.31522887 1.63815187 921.14404488 1.66738319 C919.60974714 1.67648415 918.0754248 1.68215504 916.54110146 1.68421364 C914.45281366 1.68751854 912.36496329 1.70294675 910.27676392 1.7215271 C909.10608683 1.72705786 907.93540974 1.73258862 906.72925758 1.73828697 C903.85386949 1.72187584 903.85386949 1.72187584 902 4 C900.01315308 4.24050903 900.01315308 4.24050903 897.55029297 4.22705078 C896.62948944 4.22689972 895.70868591 4.22674866 894.75997925 4.22659302 C893.76410797 4.21627045 892.76823669 4.20594788 891.7421875 4.1953125 C890.72399933 4.1924826 889.70581116 4.18965271 888.6567688 4.18673706 C885.396061 4.1755177 882.13562516 4.15040996 878.875 4.125 C876.66797271 4.11497247 874.46094112 4.10584623 872.25390625 4.09765625 C866.83584428 4.07557268 861.41794157 4.04207795 856 4 C855.67 3.01 855.34 2.02 855 1 C815.73 1.33 776.46 1.66 736 2 C735.67 2.99 735.34 3.98 735 5 C732.36 5 729.72 5 727 5 C727 3.68 727 2.36 727 1 C675.52 1.495 675.52 1.495 623 2 C622.67 2.66 622.34 3.32 622 4 C620.02 4 618.04 4 616 4 C615.67 3.01 615.34 2.02 615 1 C614.10687797 1.04449483 614.10687797 1.04449483 613.19571307 1.08988854 C597.40979312 1.85778714 581.6698592 2.14170359 565.86706543 2.12025452 C563.42921897 2.1206918 560.99137256 2.1215696 558.5535264 2.12284368 C553.30137265 2.12459837 548.04922923 2.12331513 542.79707718 2.11920547 C534.98760413 2.113112 527.17813814 2.11287503 519.36866314 2.11374746 C506.22499586 2.11505441 493.08133365 2.1117466 479.93766785 2.10573006 C466.93987503 2.09979566 453.94208432 2.09596062 440.94429016 2.09487724 C440.1335407 2.0948085 439.32279124 2.09473976 438.48747361 2.09466894 C434.3694223 2.09433057 430.25137099 2.0940292 426.13331968 2.09374207 C397.02995908 2.09164642 367.92660124 2.08492244 338.82324219 2.07543945 C310.56477879 2.06624245 282.30631615 2.05916501 254.04785156 2.05493164 C253.17549143 2.05480011 252.30313129 2.05466859 251.404336 2.05453308 C242.64305452 2.05321446 233.88177304 2.05193866 225.12049155 2.05069422 C207.27568085 2.04815859 189.4308702 2.04533733 171.58605957 2.04234314 C170.76573802 2.04220585 169.94541647 2.04206856 169.10023669 2.04192711 C114.40015664 2.03273972 59.70007815 2.01687518 5 2 C8.3 2.33 11.6 2.66 15 3 C15 3.33 15 3.66 15 4 C8.565 4.495 8.565 4.495 2 5 C1.67 21.83 1.34 38.66 1 56 C0.67 56 0.34 56 0 56 C0 37.52 0 19.04 0 0 Z " fill="#ED8DF9" transform="translate(1,1)"/>
<path d="M0 0 C155.76 0 311.52 0 472 0 C472 0.33 472 0.66 472 1 C316.57 1 161.14 1 1 1 C1.33 21.79 1.66 42.58 2 64 C2.18733228 79.03977554 2.37177118 94.07928422 2.53222656 109.11932373 C2.59420116 114.88858355 2.65859651 120.65781694 2.72252655 126.42705536 C2.81674433 134.95135262 2.90813042 143.47567568 3 152 C3.33 128.24 3.66 104.48 4 80 C4.33 80 4.66 80 5 80 C5.95106676 92.70564026 6.06383371 105.2999538 5.87890625 118.03515625 C5.85446409 120.04495036 5.83062905 122.05475193 5.80735779 124.06455994 C5.74505332 129.33449566 5.67605294 134.60431989 5.60510254 139.87414551 C5.48023221 149.21938357 5.36653542 158.56476395 5.25390625 167.91015625 C5.23530485 169.4246681 5.23530485 169.4246681 5.21632767 170.96977615 C4.96935167 191.31356082 4.93727468 211.65501675 5 232 C4.34 232.33 3.68 232.66 3 233 C3.01160156 234.0621875 3.02320313 235.124375 3.03515625 236.21875 C3.04454494 237.64583156 3.05364398 239.07291504 3.0625 240.5 C3.07087891 241.19609375 3.07925781 241.8921875 3.08789062 242.609375 C3.09111328 243.30546875 3.09433594 244.0015625 3.09765625 244.71875 C3.10289307 245.34716797 3.10812988 245.97558594 3.11352539 246.62304688 C3 249 3 249 2.5 252.57617188 C1.82907805 257.73742017 1.87516006 262.86529607 1.90234375 268.0625 C1.9037587 269.09439453 1.90517365 270.12628906 1.90663147 271.18945312 C1.91219358 274.45966589 1.92473898 277.7298082 1.9375 281 C1.9425199 283.22786359 1.94708195 285.45572826 1.95117188 287.68359375 C1.96215058 293.12241955 1.97885062 298.56120474 2 304 C3.32 304.33 4.64 304.66 6 305 C6 328.1 6 351.2 6 375 C5.01 375.33 4.02 375.66 3 376 C3 383.92 3 391.84 3 400 C3.66 400 4.32 400 5 400 C5.125 403.375 5.125 403.375 5 407 C4.34 407.66 3.68 408.32 3 409 C2.59952556 411.32275177 2.2602896 413.65739357 2 416 C2.66 416 3.32 416 4 416 C4 418.31 4 420.62 4 423 C3.34 423 2.68 423 2 423 C2 428.61 2 434.22 2 440 C2.66 440.33 3.32 440.66 4 441 C3.34 448.59 2.68 456.18 2 464 C2.66 464 3.32 464 4 464 C4.09765625 470.15234375 4.09765625 470.15234375 4 472 C3.67 472.33 3.34 472.66 3 473 C2.9026892 474.67577577 2.8762851 476.35569412 2.87695217 478.03429276 C2.87496111 479.13478874 2.87297005 480.23528472 2.87091866 481.36912906 C2.87528794 483.20984853 2.87528794 483.20984853 2.87974548 485.08775425 C2.87889115 486.38386115 2.87803681 487.67996805 2.87715659 489.01535091 C2.87490211 492.64967231 2.87895261 496.28396465 2.88393477 499.91828235 C2.88825294 503.86748552 2.8867871 507.81668704 2.88602781 511.76589191 C2.88549513 518.71666711 2.88869555 525.66743303 2.89426136 532.6182059 C2.90254617 543.00022667 2.90504922 553.38224318 2.90631752 563.7642669 C2.90861341 581.37055303 2.91546658 598.97683469 2.92469788 616.58311844 C2.93745686 641.03496706 2.94393357 665.48681456 2.94872195 689.9386659 C2.95098476 701.48234723 2.95351277 713.02602851 2.95609283 724.56970978 C2.95635094 725.73035727 2.95660905 726.89100477 2.95687498 728.0868234 C2.96257957 753.51161378 2.97084935 778.93640318 2.97923845 804.36119279 C3.0125067 905.35691094 3.02595644 1006.35263184 3.0308702 1107.34835508 C3.03118098 1113.69330773 3.03153705 1120.03826037 3.03190366 1126.38321301 C3.04416573 1341.03967628 3.04416573 1341.03967628 2.78125 1504.3046875 C2.7784772 1505.7889746 2.77570461 1507.27326171 2.77293223 1508.75754881 C2.69930609 1548.11547376 2.61669502 1587.47337848 2.53151521 1626.83127987 C2.42363455 1676.6908764 2.3216213 1726.55048392 2.23061987 1776.41011429 C2.22791756 1777.89048895 2.2252117 1779.3708636 2.22250227 1780.85123825 C2.05246952 1873.76065761 1.96832277 1966.67005087 1.8772967 2354.42362672 C1.87640994 2380.42689203 1.87493542 2406.43015699 1.87142944 2432.43342209 C1.87126586 2433.65017898 1.87110228 2434.86693587 1.87093375 2436.12056418 C1.87010707 2442.2436484 1.86926883 2448.36673262 1.86842842 2454.48981684 C1.86233079 2499.08917964 1.86013257 2543.68854023 1.86443865 2588.28790331 C1.86485899 2592.73025163 1.86527177 2597.17259995 1.86568069 2601.61494827 C1.86578395 2602.70633008 1.86588721 2603.7977119 1.8659936 2604.92216589 C1.86746672 2621.14166765 1.86637731 2637.36116781 1.86384201 2653.5806694 C1.86099284 2671.84123573 1.86169765 2690.10179804 1.86703558 2708.36236389 C1.86964237 2717.57808462 1.87080407 2726.79379883 1.86732769 2736.00951946 C1.85564846 2769.19101884 1.90018283 2802.36651372 2.44558716 2835.54423523 C2.46500625 2836.77703796 2.48442535 2838.00984069 2.5044329 2839.28000108 C2.56051054 2842.72632748 2.6228843 2846.17246876 2.68814278 2849.61863232 C2.70444916 2850.60332974 2.72075554 2851.58802717 2.73755606 2852.60256391 C2.86134747 2858.53618246 3.26063137 2864.3843715 3.88986998 2870.28684496 C4.00202315 2873.04984207 3.57178263 2875.3083471 3 2878 C3.2475 2879.423125 3.2475 2879.423125 3.5 2880.875 C4.08038295 2884.50239345 3.58089409 2887.38554788 3 2891 C3.020625 2892.010625 3.04125 2893.02125 3.0625 2894.0625 C2.99200171 2897.37591961 2.17407036 2899.91806532 1 2903 C1.66 2903 2.32 2903 3 2903 C2.8934182 2904.39696106 2.8934182 2904.39696106 2.78468323 2905.82214355 C2.02496449 2916.65636444 1.86848028 2927.42362935 1.90234375 2938.28125 C1.90421467 2940.07442179 1.90563537 2941.86759411 1.90663147 2943.6607666 C1.9104037 2948.32291132 1.92018707 2952.98502363 1.93133545 2957.64715576 C1.94166508 2962.42752647 1.94615354 2967.20790254 1.95117188 2971.98828125 C1.9618155 2981.32553488 1.97882615 2990.66276472 2 3000 C1.34 3000 0.68 3000 0 3000 C0 2010 0 1020 0 0 Z " fill="#FEF5DF" transform="translate(0,0)"/>
<path d="M0 0 C739.2 0 1478.4 0 2240 0 C2240 0.99 2240 1.98 2240 3 C2239.14328626 3.00634791 2239.14328626 3.00634791 2238.26926517 3.01282406 C2224.39079713 3.11599767 2210.5123817 3.2246784 2196.63400364 3.33933926 C2189.92260566 3.39468611 2183.21120236 3.44817045 2176.49975586 3.49731445 C2170.02882386 3.54488241 2163.55794678 3.59722219 2157.08708 3.65294075 C2154.61222632 3.67339872 2152.13735756 3.69210595 2149.66247749 3.70907402 C2146.2092554 3.7330421 2142.75613825 3.76310669 2139.30297852 3.79467773 C2138.26864182 3.8004332 2137.23430511 3.80618866 2136.16862488 3.81211853 C2134.76560623 3.82680176 2134.76560623 3.82680176 2133.33424377 3.84178162 C2132.5166134 3.84823417 2131.69898302 3.85468672 2130.85657597 3.8613348 C2128.98436143 3.79814639 2128.98436143 3.79814639 2128 5 C2126.2507128 5.09365006 2124.49763746 5.11744438 2122.74584961 5.11352539 C2121.62476303 5.11344986 2120.50367645 5.11337433 2119.34861755 5.11329651 C2117.51896202 5.10555458 2117.51896202 5.10555458 2115.65234375 5.09765625 C2114.41078018 5.0962413 2113.16921661 5.09482635 2111.89002991 5.09336853 C2108.58394509 5.08870591 2105.27792854 5.07971497 2101.97186279 5.06866455 C2098.6003885 5.05844827 2095.22890717 5.05387045 2091.85742188 5.04882812 C2085.23826225 5.03777395 2078.61913507 5.02101736 2072 5 C2072 4.34 2072 3.68 2072 3 C2035.04 3.33 1998.08 3.66 1960 4 C1960 4.33 1960 4.66 1960 5 C1957.36 5 1954.72 5 1952 5 C1952 4.34 1952 3.68 1952 3 C1922.96 3 1893.92 3 1864 3 C1864 3.66 1864 4.32 1864 5 C1832.32 5 1800.64 5 1768 5 C1768 4.34 1768 3.68 1768 3 C1596.4 3 1424.8 3 1248 3 C1248 3.66 1248 4.32 1248 5 C1245.36 5 1242.72 5 1240 5 C1240 4.34 1240 3.68 1240 3 C1239.37671074 3.00037972 1238.75342149 3.00075944 1238.11124468 3.00115067 C1201.16835479 3.02352976 1164.22546591 3.04068708 1127.28257063 3.05106533 C1122.84658353 3.05231603 1118.41059645 3.05361036 1113.97460938 3.05493164 C1113.09148589 3.05519395 1112.2083624 3.05545626 1111.29847759 3.05572652 C1096.99992346 3.06007757 1082.70137335 3.06796203 1068.4028216 3.0771528 C1053.73070221 3.08650501 1039.05858493 3.09205894 1024.38646269 3.09408849 C1015.33333058 3.09546046 1006.28020985 3.09979342 997.22708124 3.10791647 C991.01863717 3.11320325 984.81019897 3.11479989 978.60175282 3.11350138 C975.02008266 3.11286103 971.43843237 3.1138413 967.85676575 3.11920547 C963.97095011 3.12498257 960.08516028 3.12298587 956.19934082 3.12025452 C955.07092286 3.12316736 953.94250489 3.1260802 952.77989244 3.12908131 C951.73287897 3.12709026 950.68586549 3.12509921 949.60712433 3.12304783 C948.71098435 3.12342755 947.81484437 3.12380727 946.89154863 3.1241985 C944 3 944 3 940.58787346 2.49982542 C934.08929506 1.64747444 927.52841589 1.86594153 920.98690033 1.87974548 C919.4455532 1.87930894 917.90420615 1.87843238 916.36285949 1.87715685 C912.12032043 1.87492021 907.87780662 1.87892817 903.63527077 1.88393517 C899.02191607 1.88827208 894.40856271 1.88678366 889.79520655 1.88602352 C881.70668363 1.88549026 873.61816874 1.88866507 865.52964783 1.89425278 C853.50057503 1.90253922 841.47150586 1.9050738 829.44243052 1.90637711 C809.19999623 1.90871333 788.95756586 1.91556776 768.71513367 1.92483521 C741.04859541 1.93744049 713.38205847 1.94348148 685.71551782 1.94776857 C672.82309389 1.94977506 659.93067002 1.95210258 647.03824615 1.95451355 C645.10207815 1.95487507 645.10207815 1.95487507 643.12679565 1.95524389 C613.07144695 1.96092872 583.01609929 1.96959257 552.96075153 1.978864 C550.9233019 1.97949235 548.88585226 1.98011917 546.84840263 1.98074566 C525.03459966 1.98745661 503.22079676 1.9943627 481.40699387 2.001302 C461.68365009 2.00757603 441.9603063 2.01379988 422.23696247 2.019881 C420.20561081 2.02050765 418.17425915 2.02113582 416.14290749 2.02176414 C385.51020166 2.0312287 354.87749593 2.03976955 324.24478912 2.04548645 C322.95542988 2.04572744 321.66607064 2.04596844 320.3376399 2.04621673 C307.46079625 2.04860286 294.58395258 2.05083072 281.70710886 2.05282298 C254.08523578 2.05713131 226.46336733 2.06418422 198.84149674 2.07687083 C178.68714706 2.08608498 158.53279893 2.09181778 138.37844723 2.09398818 C126.4230408 2.09539637 114.46764313 2.09961241 102.51223946 2.10793434 C94.50254237 2.11323277 86.49284985 2.11481031 78.48315113 2.11350765 C73.93475899 2.11287325 69.38638257 2.11373305 64.83799332 2.1192044 C43.2042378 2.14402245 21.61890723 1.83406623 0 1 C0 0.67 0 0.34 0 0 Z " fill="#C8D4FC" transform="translate(3760,0)"/>
<path d="M0 0 C1085.04 0 2170.08 0 3288 0 C3288 0.66 3288 1.32 3288 2 C3087.36 2 2886.72 2 2680 2 C2680 2.66 2680 3.32 2680 4 C2677.52076199 4.02685095 2675.0418116 4.04676547 2672.5625 4.0625 C2671.85544922 4.07087891 2671.14839844 4.07925781 2670.41992188 4.08789062 C2668.61306441 4.09653588 2666.80612397 4.05220011 2665 4 C2664.505 3.505 2664.505 3.505 2664 3 C2652.39337052 1.7651758 2640.69023712 1.85617539 2629.03377056 1.86938947 C2627.1556965 1.86781807 2625.27762275 1.86581079 2623.39954956 1.86341216 C2618.25077313 1.85809118 2613.1020136 1.85892801 2607.95323544 1.86079345 C2602.32634609 1.86172305 2596.69946117 1.85684477 2591.07257366 1.85272202 C2581.17687924 1.84626911 2571.28118912 1.84351311 2561.38549268 1.84316199 C2550.71502091 1.84276909 2540.04455345 1.84022654 2529.37408316 1.8350333 C2528.6966239 1.83470492 2528.01916464 1.83437654 2527.32117631 1.8340382 C2523.86194232 1.83235164 2520.40270835 1.8306302 2516.94347439 1.82889687 C2491.69652413 1.81632099 2466.4495742 1.80863599 2441.20262146 1.80341911 C2415.61483141 1.79811563 2390.02704336 1.79063496 2364.43925476 1.78049088 C2363.63215833 1.78017188 2362.8250619 1.77985288 2361.993508 1.77952421 C2354.59697595 1.7766 2347.20044391 1.77365158 2339.80391188 1.77067431 C2321.25688418 1.76320986 2302.70985636 1.75607396 2284.16282845 1.74915612 C2283.31295595 1.74883889 2282.46308345 1.74852167 2281.58745725 1.74819483 C2239.6948107 1.73258721 2197.80216319 1.72071047 2155.90951538 1.70907402 C2141.16283034 1.70497529 2126.41614531 1.70085882 2111.6694603 1.69667697 C2110.75275038 1.69641702 2109.83604047 1.69615708 2108.89155146 1.69588925 C2066.42104012 1.68382436 2023.95052976 1.66920797 1981.48001946 1.65393867 C1978.70215565 1.65294008 1975.92429183 1.65194269 1973.14642802 1.65094561 C1956.39580333 1.64493205 1939.64517866 1.63889192 1922.89455399 1.63282111 C1881.25317383 1.61773048 1839.61179356 1.60295854 1797.97041321 1.58840275 C1797.02244304 1.58807123 1796.07447288 1.5877397 1795.09777634 1.58739814 C1733.70415657 1.56593024 1672.31053646 1.54577426 1610.91691589 1.52671719 C1609.44671821 1.52626081 1609.44671821 1.52626081 1607.94681957 1.52579521 C1578.11112231 1.51653641 1548.27542503 1.50737475 1518.43972774 1.49823208 C1485.42287187 1.48811417 1452.406016 1.4779797 1419.38916016 1.46777344 C1418.39632521 1.46746659 1417.40349027 1.46715973 1416.38056942 1.46684358 C1322.07547468 1.43769156 1227.7703809 1.40586512 1133.46528727 1.37334755 C1129.47062236 1.37197033 1125.47595744 1.37059389 1121.48129253 1.36921749 C1084.72139716 1.35655137 1047.9615018 1.34385386 1011.20160645 1.33111694 C1010.22412373 1.33077826 1009.246641 1.33043957 1008.23953758 1.33009062 C1005.27998271 1.32906517 1002.32042783 1.3280397 999.36087295 1.32701423 C919.40800454 1.29931123 839.45513603 1.27188195 759.50226746 1.24463 C756.68131632 1.24366841 753.86036518 1.24270661 751.03941404 1.24174474 C659.41984192 1.21050594 567.80026966 1.17976005 242.82421875 1.07592773 C242.03114256 1.07567789 241.23806638 1.07542805 240.42095758 1.07517064 C160.28063845 1.04992446 80.14031926 1.0248512 0 1 C0 0.67 0 0.34 0 0 Z " fill="#F1C8F9" transform="translate(472,0)"/>
<path d="M0 0 C430.32 0 860.64 0 1304 0 C1304 0.66 1304 1.32 1304 2 C1303.14328626 2.00634791 1303.14328626 2.00634791 1302.26926517 2.01282406 C1288.39079713 2.11599767 1274.5123817 2.2246784 1260.63400364 2.33933926 C1253.92260566 2.39468611 1247.21120236 2.44817045 1240.49975586 2.49731445 C1234.02882386 2.54488241 1227.55794678 2.59722219 1221.08708 2.65294075 C1218.61222632 2.67339872 1216.13735756 2.69210595 1213.66247749 2.70907402 C1210.2092554 2.7330421 1206.75613825 2.76310669 1203.30297852 2.79467773 C1202.26864182 2.8004332 1201.23430511 2.80618866 1200.16862488 2.81211853 C1198.76560623 2.82680176 1198.76560623 2.82680176 1197.33424377 2.84178162 C1196.5166134 2.84823417 1195.69898302 2.85468672 1194.85657597 2.8613348 C1192.98436143 2.79814639 1192.98436143 2.79814639 1192 4 C1190.2507128 4.09365006 1188.49763746 4.11744438 1186.74584961 4.11352539 C1185.62476303 4.11344986 1184.50367645 4.11337433 1183.34861755 4.11329651 C1181.51896202 4.10555458 1181.51896202 4.10555458 1179.65234375 4.09765625 C1178.41078018 4.0962413 1177.16921661 4.09482635 1175.89002991 4.09336853 C1172.58394509 4.08870591 1169.27792854 4.07971497 1165.97186279 4.06866455 C1162.6003885 4.05844827 1159.22890717 4.05387045 1155.85742188 4.04882812 C1149.23826225 4.03777395 1142.61913507 4.02101736 1136 4 C1136 3.34 1136 2.68 1136 2 C1099.04 2.33 1062.08 2.66 1024 3 C1024 3.33 1024 3.66 1024 4 C1021.36 4 1018.72 4 1016 4 C1016 3.34 1016 2.68 1016 2 C986.96 2 957.92 2 928 2 C928 2.66 928 3.32 928 4 C896.32 4 864.64 4 832 4 C832 3.34 832 2.68 832 2 C660.4 2 488.8 2 312 2 C312 2.66 312 3.32 312 4 C309.36 4 306.72 4 304 4 C304 3.34 304 2.68 304 2 C303.37671074 2.00037972 302.75342149 2.00075944 302.11124468 2.00115067 C265.16835479 2.02352976 228.22546591 2.04068708 191.28257063 2.05106533 C186.84658353 2.05231603 182.41059645 2.05361036 177.97460938 2.05493164 C177.09148589 2.05519395 176.2083624 2.05545626 175.29847759 2.05572652 C160.99992346 2.06007757 146.70137335 2.06796203 132.4028216 2.0771528 C117.73070221 2.08650501 103.05858493 2.09205894 88.38646269 2.09408849 C79.33333058 2.09546046 70.28020985 2.09979342 61.22708124 2.10791647 C55.01863717 2.11320325 48.81019897 2.11479989 42.60175282 2.11350138 C39.02008266 2.11286103 35.43843237 2.1138413 31.85676575 2.11920547 C27.97095011 2.12498257 24.08516028 2.12298587 20.19934082 2.12025452 C19.07092286 2.12316736 17.94250489 2.1260802 16.77989244 2.12908131 C11.0893953 2.11826 5.62777711 1.8560789 0 1 C0 0.67 0 0.34 0 0 Z " fill="#96D7FA" transform="translate(4696,1)"/>
<path d="M0 0 C155.76 0 311.52 0 472 0 C472 0.33 472 0.66 472 1 C316.57 1 161.14 1 1 1 C1.33 21.79 1.66 42.58 2 64 C2.18733228 79.03977554 2.37177118 94.07928422 2.53222656 109.11932373 C2.59420116 114.88858355 2.65859651 120.65781694 2.72252655 126.42705536 C2.81674433 134.95135262 2.90813042 143.47567568 3 152 C3.33 128.24 3.66 104.48 4 80 C4.33 80 4.66 80 5 80 C5.95106676 92.70564026 6.06383371 105.2999538 5.87890625 118.03515625 C5.85446409 120.04495036 5.83062905 122.05475193 5.80735779 124.06455994 C5.74505332 129.33449566 5.67605294 134.60431989 5.60510254 139.87414551 C5.48023221 149.21938357 5.36653542 158.56476395 5.25390625 167.91015625 C5.23530485 169.4246681 5.23530485 169.4246681 5.21632767 170.96977615 C4.96935167 191.31356082 4.93727468 211.65501675 5 232 C4.34 232.33 3.68 232.66 3 233 C3.01160156 234.0621875 3.02320313 235.124375 3.03515625 236.21875 C3.04454494 237.64583156 3.05364398 239.07291504 3.0625 240.5 C3.07087891 241.19609375 3.07925781 241.8921875 3.08789062 242.609375 C3.09111328 243.30546875 3.09433594 244.0015625 3.09765625 244.71875 C3.10289307 245.34716797 3.10812988 245.97558594 3.11352539 246.62304688 C3 249 3 249 2.5 252.57617188 C1.82907805 257.73742017 1.87516006 262.86529607 1.90234375 268.0625 C1.9037587 269.09439453 1.90517365 270.12628906 1.90663147 271.18945312 C1.91219358 274.45966589 1.92473898 277.7298082 1.9375 281 C1.9425199 283.22786359 1.94708195 285.45572826 1.95117188 287.68359375 C1.96215058 293.12241955 1.97885062 298.56120474 2 304 C3.32 304.33 4.64 304.66 6 305 C6 328.1 6 351.2 6 375 C5.01 375.33 4.02 375.66 3 376 C3 383.92 3 391.84 3 400 C3.66 400 4.32 400 5 400 C5.125 403.375 5.125 403.375 5 407 C4.34 407.66 3.68 408.32 3 409 C2.59952556 411.32275177 2.2602896 413.65739357 2 416 C2.66 416 3.32 416 4 416 C4 418.31 4 420.62 4 423 C3.34 423 2.68 423 2 423 C2 428.61 2 434.22 2 440 C2.66 440.33 3.32 440.66 4 441 C3.34 448.59 2.68 456.18 2 464 C2.66 464 3.32 464 4 464 C4.09765625 470.15234375 4.09765625 470.15234375 4 472 C3.67 472.33 3.34 472.66 3 473 C2.90205302 475.54657671 2.87007071 478.06599555 2.87974548 480.61303902 C2.87889124 481.42403818 2.87803699 482.23503735 2.87715685 483.07061225 C2.87549544 485.82388076 2.88104252 488.57708976 2.88647461 491.33035278 C2.8867543 493.31062184 2.88659229 495.29089101 2.88602352 497.27116001 C2.88572634 502.74213861 2.89168645 508.21309579 2.89859343 513.6840694 C2.90494209 519.57593845 2.90553476 525.46780823 2.9067688 531.35968018 C2.90966355 541.588048 2.91611752 551.81640866 2.92483521 562.0447731 C2.93744887 576.88461478 2.94348412 591.72445401 2.94776857 606.56430016 C2.94977551 613.48575766 2.95210319 620.40721504 2.95451355 627.32867241 C2.95475456 628.02184435 2.95499558 628.71501629 2.95524389 629.42919343 C2.96106217 645.94937888 2.97001424 662.4695624 2.97949219 678.98974609 C2.97990583 679.71280077 2.98031948 680.43585544 2.98074566 681.18082086 C2.98786814 693.62245214 2.99520733 706.06408329 3.00260353 718.50571442 C3.0086484 728.67487076 3.01463338 738.84402715 3.02050781 749.01318359 C3.0211297 750.08667927 3.0211297 750.08667927 3.02176414 751.18186172 C3.03124686 767.58085506 3.03979459 783.97984818 3.04548645 800.37884331 C3.04572744 801.07214655 3.04596844 801.7654498 3.04621673 802.47976224 C3.04860513 809.41127626 3.05083275 816.34279032 3.05282298 823.27430447 C3.05729558 838.72549342 3.06524408 854.17667051 3.07856297 869.62785469 C3.08709324 879.79717164 3.09190308 889.96648628 3.09398818 900.13580658 C3.09531237 905.97441026 3.09817981 911.81300068 3.10574722 917.65159988 C3.14347892 947.78120407 2.77241604 977.88000981 2 1008 C1.67 1008 1.34 1008 1 1008 C0.8264746 932.96307235 0.66362332 857.92612285 0.50904435 782.88915396 C0.50302964 779.96950069 0.49700761 777.04984743 0.49097854 774.13019419 C0.33707551 699.59532732 0.19212953 625.06043717 -0.0660501 346.88258845 C-0.06640064 344.84511109 -0.06676715 342.80763374 -0.06713971 340.77015638 C-0.06737753 339.4614094 -0.06761534 338.15266242 -0.06786036 336.80425644 C-0.06806801 335.6693816 -0.06827566 334.53450675 -0.0684896 333.36524177 C-0.08651425 222.24349591 -0.03283739 111.12173137 0 0 Z " fill="#FECED9" transform="translate(0,0)"/>
<path d="M0 0 C443.19 0 886.38 0 1343 0 C1343 0.33 1343 0.66 1343 1 C1292.84 1 1242.68 1 1191 1 C1191 1.99 1191 2.98 1191 4 C1193.64 4 1196.28 4 1199 4 C1199 4.66 1199 5.32 1199 6 C1183.49 6 1167.98 6 1152 6 C1151.67 5.34 1151.34 4.68 1151 4 C1153.64 3.67 1156.28 3.34 1159 3 C1143.16 2.67 1127.32 2.34 1111 2 C1111 2.66 1111 3.32 1111 4 C1112.175625 3.979375 1113.35125 3.95875 1114.5625 3.9375 C1118.47413467 3.93052739 1122.14497944 4.35749657 1126 5 C1126 5.33 1126 5.66 1126 6 C1120.60653012 6.02464849 1115.21309275 6.04283531 1109.81958008 6.05493164 C1107.98331125 6.05997231 1106.14704646 6.06680477 1104.31079102 6.07543945 C1101.67723599 6.08751672 1099.04373384 6.09323081 1096.41015625 6.09765625 C1095.17109276 6.10539818 1095.17109276 6.10539818 1093.90699768 6.11329651 C1091.93763632 6.11349205 1089.96838386 6.06204152 1088 6 C1087.67 5.67 1087.34 5.34 1087 5 C1084.04470496 4.83970312 1081.11017543 4.74042672 1078.15234375 4.68359375 C1077.2659169 4.66281265 1076.37949005 4.64203156 1075.46620178 4.62062073 C1072.623383 4.555026 1069.78046883 4.49619448 1066.9375 4.4375 C1065.01496394 4.3943242 1063.09243766 4.35071022 1061.16992188 4.30664062 C1056.44671332 4.19933457 1051.72340847 4.09809549 1047 4 C1047 3.67 1047 3.34 1047 3 C1052.28 3 1057.56 3 1063 3 C1063 2.34 1063 1.68 1063 1 C1042.30345091 1.08379234 1021.60698143 1.17888559 1000.91054726 1.28752708 C991.30138372 1.33770325 981.69222894 1.38414548 972.08300781 1.421875 C963.71009728 1.45475967 955.33725365 1.49457116 946.96441686 1.54279006 C942.52881799 1.56809024 938.09326369 1.589861 933.65761185 1.60334396 C929.48634405 1.61613255 925.31522887 1.63815187 921.14404488 1.66738319 C919.60974714 1.67648415 918.0754248 1.68215504 916.54110146 1.68421364 C914.45281366 1.68751854 912.36496329 1.70294675 910.27676392 1.7215271 C909.10608683 1.72705786 907.93540974 1.73258862 906.72925758 1.73828697 C903.85386949 1.72187584 903.85386949 1.72187584 902 4 C900.01315308 4.24050903 900.01315308 4.24050903 897.55029297 4.22705078 C896.62948944 4.22689972 895.70868591 4.22674866 894.75997925 4.22659302 C893.76410797 4.21627045 892.76823669 4.20594788 891.7421875 4.1953125 C890.72399933 4.1924826 889.70581116 4.18965271 888.6567688 4.18673706 C885.396061 4.1755177 882.13562516 4.15040996 878.875 4.125 C876.66797271 4.11497247 874.46094112 4.10584623 872.25390625 4.09765625 C866.83584428 4.07557268 861.41794157 4.04207795 856 4 C855.67 3.01 855.34 2.02 855 1 C815.73 1.33 776.46 1.66 736 2 C735.67 2.99 735.34 3.98 735 5 C732.36 5 729.72 5 727 5 C727 3.68 727 2.36 727 1 C675.52 1.495 675.52 1.495 623 2 C622.67 2.66 622.34 3.32 622 4 C620.02 4 618.04 4 616 4 C615.67 3.01 615.34 2.02 615 1 C614.10687797 1.04449483 614.10687797 1.04449483 613.19571307 1.08988854 C597.40979312 1.85778714 581.6698592 2.14170359 565.86706543 2.12025452 C563.42921897 2.1206918 560.99137256 2.1215696 558.5535264 2.12284368 C553.30137265 2.12459837 548.04922923 2.12331513 542.79707718 2.11920547 C534.98760413 2.113112 527.17813814 2.11287503 519.36866314 2.11374746 C506.22499586 2.11505441 493.08133365 2.1117466 479.93766785 2.10573006 C466.93987503 2.09979566 453.94208432 2.09596062 440.94429016 2.09487724 C440.1335407 2.0948085 439.32279124 2.09473976 438.48747361 2.09466894 C434.3694223 2.09433057 430.25137099 2.0940292 426.13331968 2.09374207 C397.02995908 2.09164642 367.92660124 2.08492244 338.82324219 2.07543945 C310.56477879 2.06624245 282.30631615 2.05916501 254.04785156 2.05493164 C253.17549143 2.05480011 252.30313129 2.05466859 251.404336 2.05453308 C242.64305452 2.05321446 233.88177304 2.05193866 225.12049155 2.05069422 C207.27568085 2.04815859 189.4308702 2.04533733 171.58605957 2.04234314 C170.76573802 2.04220585 169.94541647 2.04206856 169.10023669 2.04192711 C114.40015664 2.03273972 59.70007815 2.01687518 5 2 C8.3 2.33 11.6 2.66 15 3 C15 3.33 15 3.66 15 4 C8.565 4.495 8.565 4.495 2 5 C1.67 21.83 1.34 38.66 1 56 C0.67 56 0.34 56 0 56 C0 37.52 0 19.04 0 0 Z " fill="#F59ED3" transform="translate(1,1)"/>
<path d="M0 0 C0.87030711 -0.00016613 1.74061421 -0.00033225 2.63729426 -0.00050341 C24.48732338 -0.00443656 46.33734783 0.00037811 68.18737528 0.0088899 C82.62787722 0.01451525 97.06837762 0.01764966 111.50888062 0.01864815 C112.48606101 0.01871689 113.46324141 0.01878563 114.47003334 0.01885645 C119.43805527 0.01919505 124.4060772 0.01949634 129.37409914 0.01978333 C164.03455691 0.02185152 198.69501231 0.02849548 233.35546875 0.03808594 C266.90494779 0.04735788 300.45442617 0.05439776 334.00390625 0.05859375 C335.04873429 0.05872528 336.09356233 0.0588568 337.17005183 0.05899231 C347.66820732 0.06031149 358.16636283 0.06158721 368.66451833 0.06283117 C390.02658973 0.06536343 411.38866108 0.06818466 432.75073242 0.07118225 C434.22213996 0.07138819 434.22213996 0.07138819 435.7232729 0.07159828 C500.57983917 0.08070843 565.43640412 0.09654146 630.29296875 0.11352539 C630.29296875 0.44352539 630.29296875 0.77352539 630.29296875 1.11352539 C361.01296875 1.60852539 361.01296875 1.60852539 86.29296875 2.11352539 C98.17296875 2.60852539 98.17296875 2.60852539 110.29296875 3.11352539 C110.29296875 3.77352539 110.29296875 4.43352539 110.29296875 5.11352539 C109.15859375 5.25790039 108.02421875 5.40227539 106.85546875 5.55102539 C103.48519674 5.72524017 103.48519674 5.72524017 102.29296875 7.11352539 C100.01349083 7.21373469 97.7308974 7.24433842 95.44921875 7.24633789 C94.76492798 7.24729462 94.08063721 7.24825134 93.37561035 7.24923706 C91.92634998 7.24991869 90.47708657 7.24806562 89.02783203 7.24389648 C86.80233947 7.23854791 84.57704874 7.24384199 82.3515625 7.25024414 C80.94661414 7.24958336 79.5416659 7.24830219 78.13671875 7.24633789 C76.84958984 7.24520996 75.56246094 7.24408203 74.23632812 7.24291992 C71.29296875 7.11352539 71.29296875 7.11352539 70.29296875 6.11352539 C68.57431466 6.01993349 66.85181131 5.99607928 65.13061523 6 C63.47901649 6.0001133 63.47901649 6.0001133 61.79405212 6.00022888 C60.59615555 6.00539017 59.39825897 6.01055145 58.1640625 6.01586914 C56.94469498 6.01728409 55.72532745 6.01869904 54.4690094 6.02015686 C50.55613805 6.02577572 46.64332294 6.03833143 42.73046875 6.05102539 C40.08528728 6.05603796 37.44010492 6.06060129 34.79492188 6.06469727 C28.29425149 6.07575128 21.79361414 6.09250775 15.29296875 6.11352539 C14.96296875 5.12352539 14.63296875 4.13352539 14.29296875 3.11352539 C9.95112673 3.29816906 9.95112673 3.29816906 6.29296875 5.11352539 C3.08309945 5.3835144 -0.11933984 5.55963976 -3.3359375 5.71899414 C-6.81647402 5.61058059 -6.81647402 5.61058059 -9.70703125 7.11352539 C-12.40357979 7.1867216 -15.07394583 7.20595076 -17.76953125 7.17602539 C-18.52814453 7.17151367 -19.28675781 7.16700195 -20.06835938 7.16235352 C-21.94794996 7.15053219 -23.82750024 7.13259617 -25.70703125 7.11352539 C-25.70703125 6.45352539 -25.70703125 5.79352539 -25.70703125 5.11352539 C-26.82916016 5.27199951 -27.95128906 5.43047363 -29.10742188 5.59375 C-33.83971165 6.18230423 -38.53635713 6.33692463 -43.30078125 6.42993164 C-44.22580444 6.45075806 -45.15082764 6.47158447 -46.10388184 6.49304199 C-49.13818278 6.55911723 -52.17256496 6.61807469 -55.20703125 6.67602539 C-56.24617676 6.69720428 -57.28532227 6.71838318 -58.35595703 6.74020386 C-82.13921088 7.21965371 -105.92013321 7.2170991 -129.70703125 7.11352539 C-129.70703125 6.12352539 -129.70703125 5.13352539 -129.70703125 4.11352539 C-132.34703125 4.11352539 -134.98703125 4.11352539 -137.70703125 4.11352539 C-137.70703125 3.78352539 -137.70703125 3.45352539 -137.70703125 3.11352539 C-166.74703125 2.78352539 -195.78703125 2.45352539 -225.70703125 2.11352539 C-225.70703125 1.78352539 -225.70703125 1.45352539 -225.70703125 1.11352539 C-150.47160791 0.46296689 -75.23841883 0.01358905 0 0 Z " fill="#F496E4" transform="translate(1425.70703125,0.886474609375)"/>
<path d="M0 0 C0.33 0 0.66 0 1 0 C1.00173625 0.97233847 1.0034725 1.94467694 1.00526136 2.94648021 C1.11378869 63.70357706 1.2245332 124.46066969 1.33763981 185.21775818 C1.33899355 185.94499192 1.34034728 186.67222565 1.34174204 187.42149678 C1.35415549 194.08998477 1.36656936 200.75847276 1.37899261 207.42696074 C1.40973854 223.93223701 1.44032559 240.43751356 1.47045135 256.94279099 C1.4718076 257.685811 1.47316384 258.42883101 1.47456118 259.19436678 C1.48004357 262.19813077 1.48552534 265.20189475 1.49100685 268.20565873 C1.56101251 306.56158883 1.63268379 344.91751556 1.70703125 383.2734375 C1.70847568 384.0191517 1.7099201 384.7648659 1.7114083 385.5331775 C1.85894665 461.68141364 2.03017487 537.82941225 2.31421936 613.9772864 C2.33084205 618.44370292 2.34727462 622.91012013 2.36371613 627.37653732 C2.40817116 639.44414019 2.45287655 651.51174213 2.49772263 663.57934356 C2.53741499 674.2610047 2.57692556 684.94266649 2.61606371 695.62432969 C2.62202409 697.25055479 2.62799179 698.87677986 2.6339668 700.50300491 C2.9664817 791.03131625 3.02410067 881.55635214 2 1224 C1.67 1224 1.34 1224 1 1224 C0.19246514 1155.03477238 -0.14631115 1086.07910273 -0.11761053 1017.10939567 C-0.11387746 1007.76199121 -0.11269921 998.41458943 -0.11310768 989.06718445 C-0.11313637 988.38106672 -0.11316507 987.69494899 -0.11319463 986.98803982 C-0.11335112 983.48588839 -0.11354306 979.98373696 -0.11374746 976.48158552 C-0.11513331 951.51593605 -0.11180135 926.55028918 -0.10573006 901.5846405 C-0.09975457 876.95273322 -0.09594453 852.32082707 -0.09487724 827.68891907 C-0.09482563 826.53037174 -0.09482563 826.53037174 -0.09477296 825.34841942 C-0.09445965 818.29137077 -0.09417197 811.23432212 -0.09391499 804.17727347 C-0.09327658 786.65455162 -0.09231787 769.13182979 -0.09113979 751.60910797 C-0.09108648 750.81222351 -0.09103316 750.01533904 -0.09097823 749.19430656 C-0.08837311 710.67576125 -0.0820725 672.15721667 -0.07543945 633.63867188 C-0.07314725 620.31559245 -0.07087164 606.99251303 -0.06866455 593.66943359 C-0.0685276 592.8428398 -0.06839065 592.01624601 -0.06824955 591.16460392 C-0.0618746 552.54922583 -0.05817 513.93384761 -0.05512976 475.31846913 C-0.0549317 472.8034627 -0.0547325 470.28845626 -0.05453308 467.77344983 C-0.05321299 451.10272237 -0.0519384 434.43199491 -0.05069422 417.76126745 C-0.0482194 384.6065862 -0.04547779 351.45190496 -0.04255217 318.29722375 C-0.04241293 316.71924171 -0.04227387 315.14125967 -0.04213501 313.56327763 C-0.03590282 242.76288785 -0.02657151 171.96249861 -0.01586914 101.16210938 C-0.01576921 100.50086541 -0.01566927 99.83962144 -0.01556631 99.15833978 C-0.01056855 66.10555983 -0.00539244 33.0527799 0 0 Z " fill="#FEF1CF" transform="translate(0,488)"/>
<path d="M0 0 C337.92 0 675.84 0 1024 0 C1024 0.33 1024 0.66 1024 1 C870.88 1 717.76 1 560 1 C560 1.66 560 2.32 560 3 C583.76 3 607.52 3 632 3 C632 3.33 632 3.66 632 4 C576.56 4 521.12 4 464 4 C464 3.34 464 2.68 464 2 C310.88 1.67 157.76 1.34 0 1 C0 0.67 0 0.34 0 0 Z " fill="#DD98F1" transform="translate(2056,1)"/>
<path d="M0 0 C184.8 0 369.6 0 560 0 C560 0.33 560 0.66 560 1 C549.66684825 1.17871261 539.33351346 1.34371991 529 1.5 C528.20757526 1.51202454 527.41515053 1.52404907 526.59871292 1.53643799 C506.65810145 1.83652955 486.72040119 2.04379391 466.77734375 2.03125 C465.90329517 2.03074142 465.0292466 2.03023285 464.1287117 2.02970886 C455.6257825 2.02328157 447.12294109 2.0060444 438.62007713 1.97205353 C434.67250649 1.95692901 430.72493342 1.94618167 426.77734375 1.9375 C426.01590435 1.93560165 425.25446495 1.93370331 424.46995163 1.93174744 C409.97981377 1.90567025 395.50560454 2.25290284 381.02391052 2.73217773 C380.22378729 2.75694183 379.42366405 2.78170593 378.59929466 2.80722046 C377.0963992 2.85397837 375.59362817 2.90498638 374.09104347 2.96084595 C372.39476497 3.01249639 370.69702276 3.01192721 369 3 C368.67 2.67 368.34 2.34 368 2 C366.32529663 1.90031528 364.64641635 1.86919428 362.96875 1.8671875 C361.92976563 1.86589844 360.89078125 1.86460937 359.8203125 1.86328125 C358.17675781 1.86908203 358.17675781 1.86908203 356.5 1.875 C354.90285156 1.86919922 354.90285156 1.86919922 353.2734375 1.86328125 C351.69949219 1.86521484 351.69949219 1.86521484 350.09375 1.8671875 C348.66579102 1.86887939 348.66579102 1.86887939 347.20898438 1.87060547 C343.87769947 1.95810646 343.87769947 1.95810646 340.10961914 2.5 C333.15146682 3.31135992 326.14688214 3.1437062 319.15234375 3.1328125 C317.61169927 3.13348801 316.07105489 3.13446009 314.53041077 3.13571167 C311.30875631 3.13718009 308.08712971 3.13506379 304.86547852 3.13037109 C300.78347743 3.12470811 296.70154262 3.12793641 292.61954403 3.13394356 C289.43719507 3.13760136 286.25486115 3.1363864 283.07251167 3.13381577 C281.57017572 3.13315906 280.06783831 3.13392971 278.56550407 3.13629532 C269.5273742 3.14739637 260.5772339 2.84557078 251.56004333 2.22683716 C247.22287969 1.95048382 242.91091625 1.85516185 238.56640625 1.8671875 C237.76806366 1.86577759 236.96972107 1.86436768 236.14718628 1.86291504 C233.61890869 1.86082532 231.09076433 1.86698228 228.5625 1.875 C227.25878952 1.87732635 227.25878952 1.87732635 225.92874146 1.87969971 C215.09451975 1.90231423 204.26576984 1.99156621 193.4375 2.375 C191.97002319 2.42116455 191.97002319 2.42116455 190.47290039 2.46826172 C189.1231311 2.52651123 189.1231311 2.52651123 187.74609375 2.5859375 C186.98997803 2.6173584 186.2338623 2.6487793 185.45483398 2.68115234 C182.81524635 2.95784403 182.81524635 2.95784403 179.63476562 4 C175.97625472 5.00653282 172.88227502 5.31335967 169.09765625 5.4140625 C168.41477036 5.43347397 167.73188446 5.45288544 167.02830505 5.47288513 C164.70649646 5.53429798 162.38468748 5.58031779 160.0625 5.625 C159.24894043 5.64368134 158.43538086 5.66236267 157.59716797 5.68161011 C126.41066228 6.39009131 95.19232757 6.08517744 64 6 C64 5.67 64 5.34 64 5 C85.12 4.67 106.24 4.34 128 4 C128 3.67 128 3.34 128 3 C127.43753067 2.99576806 126.87506134 2.99153612 126.29554749 2.98717594 C112.53700113 2.88335569 98.77850125 2.77459224 85.02003479 2.66066074 C78.36623589 2.60570775 71.71243499 2.55233495 65.05859375 2.50268555 C58.62650099 2.45463077 52.19445575 2.4022787 45.76242065 2.34705925 C43.31950071 2.32682021 40.87656783 2.30807919 38.43362427 2.29092598 C25.58923393 2.1997445 12.80827173 2.02925773 0 1 C0 0.67 0 0.34 0 0 Z " fill="#F690F1" transform="translate(1496,2)"/>
<path d="M0 0 C1.21807375 3.79035033 1.13646232 7.54391514 1.12025452 11.48014164 C1.12110876 12.24035597 1.12196301 13.0005703 1.12284315 13.78382143 C1.12449518 16.34638819 1.1189725 18.90889001 1.11352539 21.47145081 C1.1132455 23.32201271 1.11340811 25.17257472 1.11397648 27.02313656 C1.11427287 32.12212321 1.10832452 37.22108673 1.10140657 42.320068 C1.09504476 47.81742703 1.09446414 53.3147869 1.0932312 58.81214905 C1.09033884 68.35453729 1.08388822 77.89691783 1.07516479 87.43930244 C1.06259056 101.30030198 1.05652806 115.16129868 1.05223143 129.02230298 C1.04515282 151.59470502 1.03436402 174.16710326 1.02050781 196.73950195 C1.01988734 197.75318939 1.01988734 197.75318939 1.01925434 198.78735536 C1.01171987 211.08820045 1.00393591 223.38904538 0.99609594 235.68989027 C0.99048849 244.4899561 0.98494615 253.29002197 0.97949219 262.09008789 C0.9790776 262.75713866 0.97866301 263.42418942 0.97823586 264.11145385 C0.96390854 287.20575687 0.95369018 310.30006022 0.94658184 333.39436668 C0.94254334 345.95106697 0.9363665 358.50775921 0.92483521 371.06445503 C0.80620239 434.21599175 0.80620239 434.21599175 1.44140625 497.36303711 C1.46093794 498.54690353 1.48046963 499.73076994 1.50059319 500.9505111 C1.70218387 515.86176465 1.70218387 515.86176465 2.89854431 530.71770573 C3.01304399 533.29343079 2.5226701 535.48408097 2 538 C2.2475 539.423125 2.2475 539.423125 2.5 540.875 C3.08038295 544.50239345 2.58089409 547.38554788 2 551 C2.020625 552.010625 2.04125 553.02125 2.0625 554.0625 C1.99200171 557.37591961 1.17407036 559.91806532 0 563 C0.66 563 1.32 563 2 563 C1.92894547 563.93130737 1.85789093 564.86261475 1.78468323 565.82214355 C1.02496449 576.65636444 0.86848028 587.42362935 0.90234375 598.28125 C0.90421467 600.07442179 0.90563537 601.86759411 0.90663147 603.6607666 C0.9104037 608.32291132 0.92018707 612.98502363 0.93133545 617.64715576 C0.94166508 622.42752647 0.94615354 627.20790254 0.95117188 631.98828125 C0.9618155 641.32553488 0.97882615 650.66276472 1 660 C0.34 660 -0.32 660 -1 660 C-1.01713217 597.40599126 -1.03303265 534.81198225 -1.04234314 472.2179718 C-1.04255023 470.82929671 -1.04255023 470.82929671 -1.04276149 469.41256758 C-1.04575411 449.29485988 -1.04852433 429.17715216 -1.05106533 409.05944441 C-1.05231271 399.19433338 -1.05360926 389.32922235 -1.05493164 379.46411133 C-1.0550624 378.48239196 -1.05519316 377.50067258 -1.05532788 376.48920414 C-1.05959246 344.64448373 -1.06710618 312.79976509 -1.07629722 280.95504576 C-1.08572175 248.24207296 -1.09188357 215.52910115 -1.09391499 182.81612701 C-1.09420316 178.20015475 -1.0945288 173.58418248 -1.09487724 168.96821022 C-1.09494467 168.05968262 -1.09501209 167.15115503 -1.09508156 166.21509629 C-1.09626523 151.56523654 -1.10090855 136.91537981 -1.10683203 122.26552129 C-1.11270765 107.552664 -1.1149709 92.83980972 -1.11350138 78.1269513 C-1.11273834 69.3759668 -1.11479036 60.62499328 -1.12079754 51.87401076 C-1.12453216 46.03702187 -1.12467448 40.2000402 -1.12183181 34.36305082 C-1.12031414 31.03167797 -1.12096361 27.70034299 -1.12488318 24.36896952 C-1.12885263 20.78921296 -1.12675988 17.20951155 -1.12304783 13.62975597 C-1.12567484 12.58358206 -1.12830186 11.53740815 -1.13100848 10.45953199 C-1.12876118 9.51103501 -1.12651389 8.56253803 -1.1241985 7.58529872 C-1.12435448 6.7659325 -1.12451046 5.94656628 -1.12467116 5.10237078 C-1 3 -1 3 0 0 Z " fill="#FDDFD5" transform="translate(1,2340)"/>
<path d="M0 0 C189.75 0 379.5 0 575 0 C575 0.33 575 0.66 575 1 C386.9 1.33 198.8 1.66 5 2 C8.3 2.33 11.6 2.66 15 3 C15 3.33 15 3.66 15 4 C8.565 4.495 8.565 4.495 2 5 C1.67 21.83 1.34 38.66 1 56 C0.67 56 0.34 56 0 56 C0 37.52 0 19.04 0 0 Z " fill="#F5A0C0" transform="translate(1,1)"/>
<path d="M0 0 C0.33 0 0.66 0 1 0 C1 2.64 1 5.28 1 8 C1.66 8.33 2.32 8.66 3 9 C2.34 16.59 1.68 24.18 1 32 C1.66 32 2.32 32 3 32 C3.09765625 38.15234375 3.09765625 38.15234375 3 40 C2.505 40.495 2.505 40.495 2 41 C1.90205302 43.54657671 1.87007071 46.06599555 1.87974548 48.61303902 C1.87889124 49.42403818 1.87803699 50.23503735 1.87715685 51.07061225 C1.87549544 53.82388076 1.88104252 56.57708976 1.88647461 59.33035278 C1.8867543 61.31062184 1.88659229 63.29089101 1.88602352 65.27116001 C1.88572634 70.74213861 1.89168645 76.21309579 1.89859343 81.6840694 C1.90494209 87.57593845 1.90553476 93.46780823 1.9067688 99.35968018 C1.90966355 109.588048 1.91611752 119.81640866 1.92483521 130.0447731 C1.93744887 144.88461478 1.94348412 159.72445401 1.94776857 174.56430016 C1.94977551 181.48575766 1.95210319 188.40721504 1.95451355 195.32867241 C1.95475456 196.02184435 1.95499558 196.71501629 1.95524389 197.42919343 C1.96106217 213.94937888 1.97001424 230.4695624 1.97949219 246.98974609 C1.97990583 247.71280077 1.98031948 248.43585544 1.98074566 249.18082086 C1.98786814 261.62245214 1.99520733 274.06408329 2.00260353 286.50571442 C2.0086484 296.67487076 2.01463338 306.84402715 2.02050781 317.01318359 C2.0209224 317.72884738 2.02133699 318.44451116 2.02176414 319.18186172 C2.03124686 335.58085506 2.03979459 351.97984818 2.04548645 368.37884331 C2.04572744 369.07214655 2.04596844 369.7654498 2.04621673 370.47976224 C2.04860513 377.41127626 2.05083275 384.34279032 2.05282298 391.27430447 C2.05729558 406.72549342 2.06524408 422.17667051 2.07856297 437.62785469 C2.08709324 447.79717164 2.09190308 457.96648628 2.09398818 468.13580658 C2.09531237 473.97441026 2.09817981 479.81300068 2.10574722 485.65159988 C2.14347892 515.78120407 1.77241604 545.88000981 1 576 C0.67 576 0.34 576 0 576 C0 385.92 0 195.84 0 0 Z " fill="#F9DBB7" transform="translate(1,432)"/>
<path d="M0 0 C0.33 0 0.66 0 1 0 C0.99476318 1.20567627 0.98952637 2.41135254 0.98413086 3.65356445 C0.88202477 29.73181533 1.0082065 55.8003702 1.4375 81.875 C1.45714813 83.14630768 1.47679626 84.41761536 1.49703979 85.72744751 C1.55452248 89.37829228 1.61796763 93.02898095 1.68359375 96.6796875 C1.70031128 97.74973526 1.71702881 98.81978302 1.73425293 99.92225647 C1.85487405 106.09632167 2.22974433 112.1787307 2.89002991 118.31985474 C3.00281569 121.06862272 2.56806306 123.32155051 2 126 C2.165 126.94875 2.33 127.8975 2.5 128.875 C3.08038295 132.50239345 2.58089409 135.38554788 2 139 C2.020625 140.010625 2.04125 141.02125 2.0625 142.0625 C1.99200171 145.37591961 1.17407036 147.91806532 0 151 C0.66 151 1.32 151 2 151 C1.92894547 151.93130737 1.85789093 152.86261475 1.78468323 153.82214355 C1.02496449 164.65636444 0.86848028 175.42362935 0.90234375 186.28125 C0.90421467 188.07442179 0.90563537 189.86759411 0.90663147 191.6607666 C0.9104037 196.32291132 0.92018707 200.98502363 0.93133545 205.64715576 C0.94166508 210.42752647 0.94615354 215.20790254 0.95117188 219.98828125 C0.9618155 229.32553488 0.97882615 238.66276472 1 248 C0.34 248 -0.32 248 -1 248 C-1.02282019 217.56159439 -1.0405136 187.12318994 -1.05106533 156.68477777 C-1.05231601 153.08998204 -1.05361034 149.49518633 -1.05493164 145.90039062 C-1.05519395 145.18474156 -1.05545626 144.4690925 -1.05572652 143.7317571 C-1.06007599 132.14914358 -1.06795957 120.56653503 -1.0771528 108.98392445 C-1.08650942 97.09615568 -1.09205987 85.2083895 -1.09408849 73.3206172 C-1.09533662 66.64469459 -1.09845912 59.96878102 -1.10573006 53.29286194 C-1.11251856 47.00897306 -1.11461117 40.72510009 -1.11310768 34.44120789 C-1.11338273 32.13538527 -1.11537106 29.82956212 -1.11920547 27.52374268 C-1.12418688 24.37359703 -1.12298184 21.22351132 -1.12025452 18.07336426 C-1.12316736 17.1628394 -1.1260802 16.25231454 -1.12908131 15.31419802 C-1.11693999 10.11908986 -0.75134719 5.14199683 0 0 Z " fill="#FCC8C8" transform="translate(1,2752)"/>
<path d="M0 0 C0.33 0 0.66 0 1 0 C1.33 29.04 1.66 58.08 2 88 C2.33 64.24 2.66 40.48 3 16 C3.33 16 3.66 16 4 16 C4.95106676 28.70564026 5.06383371 41.2999538 4.87890625 54.03515625 C4.85446409 56.04495036 4.83062905 58.05475193 4.80735779 60.06455994 C4.74505332 65.33449566 4.67605294 70.60431989 4.60510254 75.87414551 C4.48023221 85.21938357 4.36653542 94.56476395 4.25390625 103.91015625 C4.24150532 104.91983082 4.22910439 105.92950539 4.21632767 106.96977615 C3.96935167 127.31356082 3.93727468 147.65501675 4 168 C3.34 168.33 2.68 168.66 2 169 C2.01160156 170.0621875 2.02320313 171.124375 2.03515625 172.21875 C2.1405473 186.15671621 2.1405473 186.15671621 1 193 C0.67 193 0.34 193 0 193 C0 129.31 0 65.62 0 0 Z " fill="#FAA6B5" transform="translate(1,64)"/>
<path d="M0 0 C42.24 0 84.48 0 128 0 C128 0.99 128 1.98 128 3 C130.64 3 133.28 3 136 3 C136 3.66 136 4.32 136 5 C120.49 5 104.98 5 89 5 C88.505 4.01 88.505 4.01 88 3 C90.64 2.67 93.28 2.34 96 2 C80.16 1.67 64.32 1.34 48 1 C48 1.66 48 2.32 48 3 C49.175625 2.979375 50.35125 2.95875 51.5625 2.9375 C55.47413467 2.93052739 59.14497944 3.35749657 63 4 C63 4.33 63 4.66 63 5 C57.60653012 5.02464849 52.21309275 5.04283531 46.81958008 5.05493164 C44.98331125 5.05997231 43.14704646 5.06680477 41.31079102 5.07543945 C38.67723599 5.08751672 36.04373384 5.09323081 33.41015625 5.09765625 C32.17109276 5.10539818 32.17109276 5.10539818 30.90699768 5.11329651 C28.93763632 5.11349205 26.96838386 5.06204152 25 5 C24.505 4.505 24.505 4.505 24 4 C21.04470496 3.83970312 18.11017543 3.74042672 15.15234375 3.68359375 C13.82270348 3.6524221 13.82270348 3.6524221 12.46620178 3.62062073 C9.623383 3.555026 6.78046883 3.49619448 3.9375 3.4375 C2.01496394 3.3943242 0.09243766 3.35071022 -1.83007812 3.30664062 C-6.55328668 3.19933457 -11.27659153 3.09809549 -16 3 C-16 2.67 -16 2.34 -16 2 C-10.72 2 -5.44 2 0 2 C0 1.34 0 0.68 0 0 Z " fill="#F99ADE" transform="translate(1064,2)"/>
<path d="M0 0 C2.475 0.495 2.475 0.495 5 1 C5 24.1 5 47.2 5 71 C3.515 71.495 3.515 71.495 2 72 C2 79.92 2 87.84 2 96 C2.66 96 3.32 96 4 96 C4.125 99.375 4.125 99.375 4 103 C3.01 103.99 3.01 103.99 2 105 C1.59952556 107.32275177 1.2602896 109.65739357 1 112 C1.66 112 2.32 112 3 112 C3 114.31 3 116.62 3 119 C2.34 119 1.68 119 1 119 C0.505 119.99 0.505 119.99 0 121 C0 81.07 0 41.14 0 0 Z " fill="#FBAAAB" transform="translate(1,304)"/>
<path d="M0 0 C31.68 0 63.36 0 96 0 C96 0.66 96 1.32 96 2 C119.76 2 143.52 2 168 2 C168 2.33 168 2.66 168 3 C112.56 3 57.12 3 0 3 C0 2.01 0 1.02 0 0 Z " fill="#E892F9" transform="translate(2520,2)"/>
<path d="M0 0 C92.4 0 184.8 0 280 0 C280 0.33 280 0.66 280 1 C195.52 1 111.04 1 24 1 C24 1.66 24 2.32 24 3 C21.52076199 3.02685095 19.0418116 3.04676547 16.5625 3.0625 C15.85544922 3.07087891 15.14839844 3.07925781 14.41992188 3.08789062 C12.61306441 3.09653588 10.80612397 3.05220011 9 3 C8.67 2.67 8.34 2.34 8 2 C6.65252916 1.76924918 5.29622435 1.58846937 3.9375 1.4375 C2.638125 1.293125 1.33875 1.14875 0 1 C0 0.67 0 0.34 0 0 Z " fill="#C9B6F4" transform="translate(3128,1)"/>
<path d="M0 0 C0.33 0 0.66 0 1 0 C1 2.64 1 5.28 1 8 C1.66 8.33 2.32 8.66 3 9 C2.34 16.59 1.68 24.18 1 32 C1.66 32 2.32 32 3 32 C3.09765625 38.15234375 3.09765625 38.15234375 3 40 C2.505 40.495 2.505 40.495 2 41 C1.89110269 42.94860506 1.8531 44.90118574 1.84178162 46.85279846 C1.82709839 48.76066635 1.82709839 48.76066635 1.81211853 50.70707703 C1.80621356 52.12966881 1.80040317 53.55226099 1.79467773 54.97485352 C1.78510465 56.46266963 1.77509491 57.950483 1.76467896 59.43829346 C1.73756208 63.48974037 1.71658937 67.54119902 1.69667697 71.59268689 C1.6748591 75.82214339 1.64744994 80.05156346 1.62062073 84.2809906 C1.57063688 92.2955708 1.52571924 100.31017116 1.48259836 108.32479089 C1.43327453 117.44679271 1.37833846 126.56875799 1.32291877 135.69072449 C1.20901138 154.46044909 1.10219151 173.23020814 1 192 C0.67 192 0.34 192 0 192 C0 128.64 0 65.28 0 0 Z " fill="#F7CBB3" transform="translate(1,432)"/>
<path d="M0 0 C0.33 0 0.66 0 1 0 C1 12.87 1 25.74 1 39 C1.66 39 2.32 39 3 39 C3.04990593 43.25006599 3.08595579 47.49997099 3.10986328 51.75024414 C3.11984313 53.19233171 3.13343184 54.63439946 3.15087891 56.07641602 C3.24384199 63.9646071 3.17375461 71.34051033 1 79 C1.66 79 2.32 79 3 79 C3 81.31 3 83.62 3 86 C2.01 86 1.02 86 0 86 C-0.15634863 78.33085706 -0.30443292 70.66158832 -0.4429636 62.99210358 C-0.5075805 59.42791718 -0.57467631 55.86381949 -0.64819336 52.29980469 C-1.0064954 34.83151905 -1.02132611 17.45361244 0 0 Z " fill="#FCD1AF" transform="translate(5,585)"/>
<path d="M0 0 C0.33 0 0.66 0 1 0 C1.05085322 7.68633183 1.08579796 15.37261999 1.10986328 23.05908203 C1.11989948 25.67205425 1.13353136 28.28501531 1.15087891 30.89794922 C1.17523163 34.66116092 1.18650721 38.42422367 1.1953125 42.1875 C1.20563507 43.34926758 1.21595764 44.51103516 1.22659302 45.70800781 C1.22743457 51.83896305 0.81162987 57.13257594 -1 63 C-1.33 63 -1.66 63 -2 63 C-2.18985615 24.53514453 -2.18985615 24.53514453 -1.5625 10.125 C-1.52326416 9.18906006 -1.48402832 8.25312012 -1.44360352 7.28881836 C-1.13430462 1.13430462 -1.13430462 1.13430462 0 0 Z " fill="#FEE0B0" transform="translate(7,872)"/>
<path d="M0 0 C0.33 0 0.66 0 1 0 C1.0154612 1.06876373 1.0154612 1.06876373 1.03123474 2.15911865 C1.12984393 8.92487408 1.232439 15.69055904 1.33933926 22.4561882 C1.39414123 25.93316653 1.44748489 29.41015361 1.49731445 32.88720703 C1.55487266 36.8988413 1.61909987 40.91034619 1.68359375 44.921875 C1.70030624 46.15049255 1.71701874 47.37911011 1.73423767 48.6449585 C1.84618046 55.26950714 2.16959514 61.79361645 2.89002991 68.38165283 C3.00436556 71.1039423 2.56118717 73.34618395 2 76 C2.165 76.94875 2.33 77.8975 2.5 78.875 C3.08038295 82.50239345 2.58089409 85.38554788 2 89 C2.020625 90.093125 2.04125 91.18625 2.0625 92.3125 C2 95 2 95 0 97 C0 64.99 0 32.98 0 0 Z " fill="#FAB6B8" transform="translate(1,2802)"/>
<path d="M0 0 C12.87 0 25.74 0 39 0 C39 0.66 39 1.32 39 2 C37.39318359 2.09087891 37.39318359 2.09087891 35.75390625 2.18359375 C34.35675609 2.26798537 32.95962143 2.35263406 31.5625 2.4375 C30.50192383 2.49647461 30.50192383 2.49647461 29.41992188 2.55664062 C25.91309581 2.47624438 25.91309581 2.47624438 23 4 C21.21706938 4.01672261 19.43337664 3.96282927 17.65234375 3.87890625 C16.57275391 3.83056641 15.49316406 3.78222656 14.38085938 3.73242188 C13.24455078 3.67634766 12.10824219 3.62027344 10.9375 3.5625 C9.79732422 3.51029297 8.65714844 3.45808594 7.48242188 3.40429688 C4.65469977 3.27415067 1.82729 3.13917121 -1 3 C-0.67 2.01 -0.34 1.02 0 0 Z " fill="#D8A1FD" transform="translate(2937,4)"/>
<path d="M0 0 C0.33 0 0.66 0 1 0 C1 2.64 1 5.28 1 8 C1.66 8.33 2.32 8.66 3 9 C2.34 16.59 1.68 24.18 1 32 C1.66 32 2.32 32 3 32 C3.09765625 38.15234375 3.09765625 38.15234375 3 40 C2.505 40.495 2.505 40.495 2 41 C1.97356781 44.34178406 2.02898026 47.66978175 2.12695312 51.00976562 C2.19193438 55.18767784 1.92060647 57.15878705 0 61 C0 40.87 0 20.74 0 0 Z " fill="#FAB9AF" transform="translate(1,432)"/>
<path d="M0 0 C0.33 0 0.66 0 1 0 C1 12.87 1 25.74 1 39 C1.66 39 2.32 39 3 39 C2.88541307 40.43836751 2.75790884 41.87570966 2.625 43.3125 C2.52058594 44.51326172 2.52058594 44.51326172 2.4140625 45.73828125 C2 48 2 48 0 51 C0 34.17 0 17.34 0 0 Z " fill="#FEC9CC" transform="translate(0,2864)"/>
<path d="M0 0 C8.25 0 16.5 0 25 0 C24.67 0.99 24.34 1.98 24 3 C18.72 3 13.44 3 8 3 C8 2.34 8 1.68 8 1 C5.36 1 2.72 1 0 1 C0 0.67 0 0.34 0 0 Z " fill="#F798E0" transform="translate(1248,5)"/>
</svg>
